<?xml version="1.0" encoding="UTF-8"?>
<!DOCTYPE svg PUBLIC "-//W3C//DTD SVG 1.1//EN" "http://www.w3.org/Graphics/SVG/1.1/DTD/svg11.dtd">
<!-- Creator: CorelDRAW 2020 -->
<svg xmlns="http://www.w3.org/2000/svg" xml:space="preserve" width="147mm" height="210mm" version="1.1" style="shape-rendering:geometricPrecision; text-rendering:geometricPrecision; image-rendering:optimizeQuality; fill-rule:evenodd; clip-rule:evenodd"
viewBox="0 0 14700 21000"
 xmlns:xlink="http://www.w3.org/1999/xlink"
 xmlns:xodm="http://www.corel.com/coreldraw/odm/2003">
 <defs>
  <style type="text/css">
   <![CDATA[
    .fil2 {fill:none}
    .fil0 {fill:none}
    .fil1 {fill:white}
   ]]>
  </style>
    <clipPath id="id0">
     <path d="M7691.28 11282.62c190.55,-760.6 611.37,-1415.29 147.76,-1738.76l-276.16 616.3c-1.99,-1121.21 242.06,-971.16 -705.42,-2005.66 -158.61,279.77 -218.12,526.07 -399.66,747.49 -396.61,483.99 -1292.32,1354.33 -1787.8,1672.1 200.57,1942.39 1671.89,2255.84 2342.01,3218.91 950.52,-891.45 2010.14,-1646.63 2193.02,-2935.92 68.82,-485.07 -266.82,-469.32 -267,-469.42 -192.74,319.43 -229.49,481.4 -443.02,870.26 -176.09,320.74 -378.52,643.85 -646.33,890.47l-94.58 75.24c385.69,-701.98 771.11,-1110.58 881.96,-2102.77l-284.15 -180.24c-258.9,353.09 -284.05,863.84 -660.63,1342z"/>
    </clipPath>
    <clipPath id="id1">
     <path d="M7638.44 16098.18c288.74,-634.62 896.55,-2194.7 439.54,-2856.21 -351.18,324.63 -780.53,621.14 -984.04,1176.23 -162.67,-107.88 -34.49,7.85 -173.58,-157.8 -545.49,-649.68 -114.68,-239.78 -948.01,-991.84 -171.53,230.53 -462.49,1013.53 -671.35,1330.52 -403.95,613.01 -570.84,608.84 -168.05,1409.97 608.73,1210.71 1520.93,1512.82 1897.23,2158.82 287.22,-159.41 456.37,-456.97 714.06,-680.94 575.65,-500.26 1738.09,-1718.09 1324.7,-2545.79 -216.57,177.26 -344.92,617.5 -572.26,983.96 -219.11,353.18 -421.06,605.37 -673.11,837.83 244.38,-367.29 451.59,-745.67 652.83,-1219.24 266.02,-626 398.25,-872.94 164.29,-1212.19 -92.51,-134.18 -67.28,-73.52 -115.93,-127.71l-212.99 539.05c-275.34,787.56 -593.01,1139.21 -673.33,1355.34z"/>
    </clipPath>
    <clipPath id="id2">
     <path d="M1881.51 11115.39c689.49,-1080.65 584.59,-933.71 908.52,-1163.4 112.54,453.81 -501.34,1342.88 -687.44,2036.86 488.03,-689.14 318.53,-584.16 543.49,-817.3 224.96,-233.15 551.56,-157.53 740.18,-234.49 -127.49,352.89 -711.93,1313.52 -1046.82,1767.9 -296.78,402.82 -630.77,650.4 -898.2,1019.39 -389.5,557.69 -470.05,1128.89 -625.72,1947.61 -583.34,-936.69 -1507.73,-5386.09 102.55,-5548.72 539.86,-44.63 535.84,44.59 1395.59,-181.83 -315.55,752.77 -303.41,523.67 -432.15,1173.98z"/>
    </clipPath>
    <clipPath id="id3">
     <path d="M12541.06 9845.12c240.74,673.72 414.51,921.43 456.69,1758.62l-178.31 -521.68c-106.09,-419.02 -360.07,-1105.49 -644.23,-1215.14 -374.74,-99.37 -474.73,-23.43 -829.39,-75.81 -110.68,-16.39 -200.25,-39.58 -682.35,-78.14 91.78,394.31 631.97,832.35 617.49,1263.6 -323.83,-13.48 -309.61,-53.08 -596.68,-82.4 144.65,690.91 407.72,819.04 743.85,1317.97 668.69,992.63 1105.59,1285.93 1614.15,1950.01 134.03,175.06 353.42,503.96 499.97,631.01 467.25,-812.68 586.24,-2875.14 336.41,-3988.26 -146.14,-651.07 -339.74,-835.16 -790.62,-946.63 246.67,424.58 416.37,944.87 490.3,1479.9 57.75,418.46 21.27,1268.33 68.42,1490.48 -61.55,-661.3 -153.16,-1276.16 -332.11,-1876.73 -219.51,-736.98 -293.73,-1004.26 -773.59,-1106.8z"/>
    </clipPath>
    <clipPath id="id4">
     <path d="M4244.97 13454.94c137.24,-812.39 517,-1671.82 170.25,-2505.76 -96.14,-231.21 49.41,68.45 -78.96,-152.02l-346.13 427.46 -287.91 -515.25c-131.3,162.92 -299.44,841.15 -614.75,1438.57 -124.65,236.18 -234.38,415.53 -387.29,627.32 -677.99,938.96 833.69,2907.08 1429.19,3198.71 185.64,-678.55 993.46,-1529.43 1394.8,-2525.39 177.77,-441.12 213.89,-541.66 -139.45,-760.28 -293.88,340.01 -314.5,1085.6 -1053.6,1875.99 218.24,-378.43 422.3,-790.42 568.13,-1300.81 196.82,-688.9 320.72,-865.56 -99.02,-1318.22 -171.96,653.86 -268.19,959.17 -555.26,1509.68z"/>
    </clipPath>
    <clipPath id="id5">
     <path d="M10494.34 13622.64c67.33,-704.11 112.74,-1768.85 -172.12,-2482.16l-143.88 -252.83c-79,219.77 -110.64,241.46 -220.42,424.84l-201.4 -553.02c-85.6,-109.8 -29.32,-45.64 -122.21,-123.39 -98.36,720.73 -600.91,1780.73 -1234.71,2175.83 30.14,1105.73 1310.02,2168.28 1580.6,3095.39 431.44,-221.69 870.88,-817.81 1143.18,-1365.9 137.05,-275.77 255.59,-585 334.25,-898.45 163.65,-652.48 134.9,-673.11 -117.86,-921.12 -156.33,289.76 -222.81,783.49 -347.78,1119.82 -121.69,327.3 -407.45,719.71 -465.07,912.41 228.34,-557.97 775.18,-2089.4 369.15,-2730.73 -9.75,15.64 -18.35,39.02 -22.44,50.37l-53.58 160.39c-133.4,560.15 6.69,459.52 -325.71,1388.55z"/>
    </clipPath>
    <clipPath id="id6">
     <path d="M9903.14 17825.84c176.46,-526.2 518.49,-1123.52 491.27,-1761.15 -137.58,134.52 -314.35,260.27 -566.59,364.23 -66.63,-317.8 -154.26,-505.39 -341.93,-743.82 -159.1,213.96 -373.22,757.15 -588.23,1065.76 -197.33,283.22 -675.69,595.2 -651.98,862.34 57.37,646.81 893.99,1379 1020.33,2238.38 872.28,-512.55 1909.71,-1929.91 1661.13,-2572.69 -164.27,154.9 -264.12,482.16 -395.52,707.92 -148.83,255.71 -328.2,487.9 -517.21,647.47 204.63,-416.55 901.02,-1473.45 572.04,-1969.1l-683.31 1160.66z"/>
    </clipPath>
    <clipPath id="id7">
     <path d="M4719.47 17899.13c94.72,-810.13 404.6,-1514.39 -121.73,-2165.82l-357.36 756.22 -579.08 -352.9c-141.73,1192.51 -847.04,993.31 -215.39,2188.5 379.31,717.74 830.09,1206.97 1440.79,1557.37 107.56,-226.46 123.33,-390.37 253.67,-636.81 314.66,-594.99 648.69,-1071.53 784.51,-1715.89l-269.11 -225.29c-277.86,435.3 -470.82,1099.06 -763.43,1555.11 251.31,-915.34 690.7,-1619.67 294.63,-2103.47l-467.5 1142.98z"/>
    </clipPath>
    <clipPath id="id8">
     <path d="M7560.01 18946.02c161.05,-353.88 518.3,-677.18 402.91,-1126.27 -357.35,173.64 -630.08,621.82 -893.07,982.04 -254.28,-503.31 -489.43,-641.32 -826.91,-959.21 -45.51,54.17 -717.3,1428.99 -738.01,1505.27 274.4,468.74 1342.56,1527.08 1666.58,1659.29 231.02,-332.68 607.5,-609.01 903.54,-900.46 702.64,-691.76 686.66,-815.35 432.22,-1121.54 -272.65,204.96 -199.11,375.62 -861.6,885.5 166.19,-443.85 819.22,-988.51 547.3,-1483.51 -212.87,131.73 -415.07,391.7 -632.96,558.89z"/>
    </clipPath>
    <clipPath id="id9">
     <path d="M11593.7 17829.55c94.88,-67.42 50.86,-32.51 134.96,-108.66 15.93,-14.42 62.39,-58.72 77.36,-74.4 106.99,-112.02 61.05,-66.45 127.93,-159.77 84.84,-118.41 180.34,-271.57 255.78,-394.69 138.49,-225.97 297.37,-537.5 406.65,-824.25 193.17,-506.9 522.99,-1755.94 -5.01,-2067.02 -108,326.4 -77.89,827.48 -146,1202.86 -61.94,341.44 -242.79,700.95 -294.99,940.57 144.04,-551.73 419.11,-2244.91 -53.77,-2750.45 -36.3,-38.8 -77.19,-77.17 -117.52,-113.14 -94.97,-84.72 -27.75,-37.88 -140.04,-110.43 -143.71,1117.1 -598,1562.73 -1013.25,2252.93 -355.18,590.34 618.63,1678.18 767.9,2206.45z"/>
    </clipPath>
    <clipPath id="id10">
     <path d="M1404.02 14380.69c-604.27,739.06 299.55,2501.03 751.44,3133.99 96.95,135.81 57.55,106.96 191.13,241.67l193.6 155.05c403.08,-764.71 1140.68,-1782.46 623.11,-2301.04l-484.93 1220.01c63.96,-458.34 397.93,-1363.47 101.45,-1749.31l-302.55 852.75c3.93,-438.27 130.51,-878.84 55.86,-1347.36 -54.47,-341.96 -263.57,-657.54 -325.06,-1104.88l-804.05 899.12z"/>
    </clipPath>
    <clipPath id="id11">
     <path d="M11036.94 10732.71c-193.35,-501.67 -1525.23,-2465.17 -2224.11,-2648.06 271.57,464.12 534.75,798.29 838.97,1189.7 -531.45,-419.83 -829.3,-879.76 -1066.73,-1081.37 -466.05,-395.7 -385.89,-618.82 -1540.73,-767.1 316.87,1747.31 2081.27,3082.23 3992.6,3306.83z"/>
    </clipPath>
    <clipPath id="id12">
     <path d="M4212.41 9193.71c100.19,-272.97 478.11,-751.11 657.69,-1067.38 -218.04,75.94 -549.35,353.04 -695.87,495.75 -341.03,332.18 -1297.42,1782.16 -1471.49,2204.81 1655.83,-210.58 3599.39,-1463.95 3919.41,-3404.44 -1543.23,295.56 -1295.87,784.42 -2409.74,1771.26z"/>
    </clipPath>
    <clipPath id="id13">
     <path d="M2519.57 8744.14c414.42,-356.92 777.71,-507.69 1232.94,-1050.05 -1015.77,274.8 -2599.95,1428.98 -2963.75,2158.89 542.43,-75.02 1133.21,-107.17 1670.55,-193.24 746.12,-119.49 691.68,-282.67 1068.75,-736.57 587.53,-707.25 926.27,-1069.9 2010.39,-1569.47 -1377.5,-97.3 -1894.29,1015.66 -3018.88,1390.44z"/>
    </clipPath>
    <clipPath id="id14">
     <path d="M13416.79 9740.51c-359.66,-689.56 -2550.72,-1941.67 -3497.83,-2115.95 315.24,404.54 790.1,641.3 1086.9,922.36 10.87,10.36 29.6,29.86 43.71,45.51 -1018.62,-304.18 -1555.69,-1403.88 -2924.56,-1265.25 2486.98,1074.72 1770.26,2053.22 3137.07,2230.98 537.87,34.29 1595.16,34.25 2154.71,182.35z"/>
    </clipPath>
    <clipPath id="id15">
     <path d="M10368.17 7457.49c-648.38,-867.29 -2785.97,-2782.99 -1861.08,-2888.69 650.96,-74.61 2447.35,303.59 3053.11,489.84 848.83,187.15 1607.94,169.44 1856.54,-657.37l-1527.31 -157.68 -554.91 -39.43 554.91 39.43 -554.91 -39.43c-376.12,-87.92 -781.82,-158.7 -1034.01,-437.46 -71.47,-78.88 -429.86,-686.59 -445.78,-745.52l1720.57 164 608.67 68.84c773.34,170.04 1470.73,401.1 1980.96,961.93 66.7,73.18 121.9,145.55 199.68,229.96l234.95 235.03c301.75,-1929.44 -428.08,-2262.93 -1415.04,-2809.38l-130.19 -90.43 -817.5 -60.01 -1461.72 -213.06c74.74,-476.3 396.68,-724.23 -270.76,-1088.81 -1946.68,-1064.21 -4708.09,562.1 -6802.28,557.99 -731.76,-1.51 -1539.93,-88.26 -2138.16,-525.51 -203.71,-148.77 -38.27,-25.53 -235.72,-205.36l-263.88 -239.23c-289.19,1931.65 1804.03,1977.89 3041.24,2606.68 65.58,33.3 -0.75,4.57 69.12,71.12 -1040.55,574.15 -886.39,2161.3 -1053.44,3286.09 -68.21,459.91 -138.89,1085.74 -225.38,1542.78 -36.88,195.27 -206.23,484.09 -122.34,433.23 77.71,-47.17 350.48,-226.88 388.88,-285.46 223.71,-342.45 298.74,-726.63 393.55,-1099.54 34.54,-135.68 144.78,-263.16 184.44,-397.51 -3.67,254.17 -9.95,520.09 -104.3,836.05 -28.99,96.83 -210.25,538.53 -250.18,644.33 101.39,5.77 472.66,-139.68 620.99,-281.01 157.8,-377.93 228.5,-602.9 269.49,-880.98 25.1,-170.9 128.04,-423.24 157.67,-593.14 148.62,72.76 -6.51,1127.78 -186.06,1462.63 297.65,-67.21 179.3,-78.95 282.4,-101.46 259.73,-56.49 312.82,-57.32 481.1,-277.28 103.68,-135.82 193.25,-259.7 304.64,-391.94 7.41,-8.96 53.52,321.26 -278.16,622.98 269.69,69.23 442.6,-49.82 625.35,-0.65 299.81,-412.91 534.95,-740.17 853.35,-1251.33 -87.58,417.92 -127,473.84 -360.65,824.39 -847.84,1271.88 -670.09,782.01 336.36,456.74 199.23,-64.25 102.76,-363.75 137.71,-550.45 20.88,-112.31 109.54,-414.29 124.36,-525.66 30.61,-230.69 -2.86,1106.58 114.13,1126.46 2255.81,386.3 534.82,-28.65 391.56,-950.97 -8.2,-53.59 2.62,3.89 16.35,25.32 259.09,406.46 335.97,306.21 599.56,673.31 369.68,73.17 699.25,31.76 1062.93,3.84 -90.61,-126.28 -260.02,-265.7 -322.33,-323.91 -184.38,-172.12 -567.01,-540.33 -586.5,-787.44 325.28,329.1 999.01,952.49 1120.1,1145.61 407.54,153.4 765.61,240.5 1217.92,387.52zm-3411.31 -5622.55c557.06,159.55 273.7,-16.5 723.87,355 418.9,345.54 1615.42,792.82 1665.73,-587.43 -931.77,-237.45 -1663.75,38.88 -2389.6,232.43z"/>
    </clipPath>
 </defs>
 <g id="Слой_x0020_1">
  <metadata id="CorelCorpID_0Corel-Layer"/>
  <g id="Ливер">
   <path class="fil0" d="M7691.28 11282.62c190.55,-760.6 611.37,-1415.29 147.76,-1738.76l-276.16 616.3c-1.99,-1121.21 242.06,-971.16 -705.42,-2005.66 -158.61,279.77 -218.12,526.07 -399.66,747.49 -396.61,483.99 -1292.32,1354.33 -1787.8,1672.1 200.57,1942.39 1671.89,2255.84 2342.01,3218.91 950.52,-891.45 2010.14,-1646.63 2193.02,-2935.92 68.82,-485.07 -266.82,-469.32 -267,-469.42 -192.74,319.43 -229.49,481.4 -443.02,870.26 -176.09,320.74 -378.52,643.85 -646.33,890.47l-94.58 75.24c385.69,-701.98 771.11,-1110.58 881.96,-2102.77l-284.15 -180.24c-258.9,353.09 -284.05,863.84 -660.63,1342z"/>
   <g style="clip-path:url(#id0)">
    <g>
     <rect class="fil1" x="-5917" y="-2674.82" width="26528.16" height="26353.05"/>
    </g>
   </g>
   <path class="fil2" d="M7691.28 11282.62c190.55,-760.6 611.37,-1415.29 147.76,-1738.76l-276.16 616.3c-1.99,-1121.21 242.06,-971.16 -705.42,-2005.66 -158.61,279.77 -218.12,526.07 -399.66,747.49 -396.61,483.99 -1292.32,1354.33 -1787.8,1672.1 200.57,1942.39 1671.89,2255.84 2342.01,3218.91 950.52,-891.45 2010.14,-1646.63 2193.02,-2935.92 68.82,-485.07 -266.82,-469.32 -267,-469.42 -192.74,319.43 -229.49,481.4 -443.02,870.26 -176.09,320.74 -378.52,643.85 -646.33,890.47l-94.58 75.24c385.69,-701.98 771.11,-1110.58 881.96,-2102.77l-284.15 -180.24c-258.9,353.09 -284.05,863.84 -660.63,1342z"/>
   <path class="fil0" d="M7638.44 16098.18c288.74,-634.62 896.55,-2194.7 439.54,-2856.21 -351.18,324.63 -780.53,621.14 -984.04,1176.23 -162.67,-107.88 -34.49,7.85 -173.58,-157.8 -545.49,-649.68 -114.68,-239.78 -948.01,-991.84 -171.53,230.53 -462.49,1013.53 -671.35,1330.52 -403.95,613.01 -570.84,608.84 -168.05,1409.97 608.73,1210.71 1520.93,1512.82 1897.23,2158.82 287.22,-159.41 456.37,-456.97 714.06,-680.94 575.65,-500.26 1738.09,-1718.09 1324.7,-2545.79 -216.57,177.26 -344.92,617.5 -572.26,983.96 -219.11,353.18 -421.06,605.37 -673.11,837.83 244.38,-367.29 451.59,-745.67 652.83,-1219.24 266.02,-626 398.25,-872.94 164.29,-1212.19 -92.51,-134.18 -67.28,-73.52 -115.93,-127.71l-212.99 539.05c-275.34,787.56 -593.01,1139.21 -673.33,1355.34z"/>
   <g style="clip-path:url(#id1)">
    <g>
     <rect class="fil1" x="-5917" y="-2674.82" width="26528.16" height="26353.05"/>
    </g>
   </g>
   <path class="fil2" d="M7638.44 16098.18c288.74,-634.62 896.55,-2194.7 439.54,-2856.21 -351.18,324.63 -780.53,621.14 -984.04,1176.23 -162.67,-107.88 -34.49,7.85 -173.58,-157.8 -545.49,-649.68 -114.68,-239.78 -948.01,-991.84 -171.53,230.53 -462.49,1013.53 -671.35,1330.52 -403.95,613.01 -570.84,608.84 -168.05,1409.97 608.73,1210.71 1520.93,1512.82 1897.23,2158.82 287.22,-159.41 456.37,-456.97 714.06,-680.94 575.65,-500.26 1738.09,-1718.09 1324.7,-2545.79 -216.57,177.26 -344.92,617.5 -572.26,983.96 -219.11,353.18 -421.06,605.37 -673.11,837.83 244.38,-367.29 451.59,-745.67 652.83,-1219.24 266.02,-626 398.25,-872.94 164.29,-1212.19 -92.51,-134.18 -67.28,-73.52 -115.93,-127.71l-212.99 539.05c-275.34,787.56 -593.01,1139.21 -673.33,1355.34z"/>
   <path class="fil0" d="M1881.51 11115.39c689.49,-1080.65 584.59,-933.71 908.52,-1163.4 112.54,453.81 -501.34,1342.88 -687.44,2036.86 488.03,-689.14 318.53,-584.16 543.49,-817.3 224.96,-233.15 551.56,-157.53 740.18,-234.49 -127.49,352.89 -711.93,1313.52 -1046.82,1767.9 -296.78,402.82 -630.77,650.4 -898.2,1019.39 -389.5,557.69 -470.05,1128.89 -625.72,1947.61 -583.34,-936.69 -1507.73,-5386.09 102.55,-5548.72 539.86,-44.63 535.84,44.59 1395.59,-181.83 -315.55,752.77 -303.41,523.67 -432.15,1173.98z"/>
   <g style="clip-path:url(#id2)">
    <g>
     <rect class="fil1" x="-5917" y="-2674.82" width="26528.16" height="26353.05"/>
    </g>
   </g>
   <path class="fil2" d="M1881.51 11115.39c689.49,-1080.65 584.59,-933.71 908.52,-1163.4 112.54,453.81 -501.34,1342.88 -687.44,2036.86 488.03,-689.14 318.53,-584.16 543.49,-817.3 224.96,-233.15 551.56,-157.53 740.18,-234.49 -127.49,352.89 -711.93,1313.52 -1046.82,1767.9 -296.78,402.82 -630.77,650.4 -898.2,1019.39 -389.5,557.69 -470.05,1128.89 -625.72,1947.61 -583.34,-936.69 -1507.73,-5386.09 102.55,-5548.72 539.86,-44.63 535.84,44.59 1395.59,-181.83 -315.55,752.77 -303.41,523.67 -432.15,1173.98z"/>
   <path class="fil0" d="M12541.06 9845.12c240.74,673.72 414.51,921.43 456.69,1758.62l-178.31 -521.68c-106.09,-419.02 -360.07,-1105.49 -644.23,-1215.14 -374.74,-99.37 -474.73,-23.43 -829.39,-75.81 -110.68,-16.39 -200.25,-39.58 -682.35,-78.14 91.78,394.31 631.97,832.35 617.49,1263.6 -323.83,-13.48 -309.61,-53.08 -596.68,-82.4 144.65,690.91 407.72,819.04 743.85,1317.97 668.69,992.63 1105.59,1285.93 1614.15,1950.01 134.03,175.06 353.42,503.96 499.97,631.01 467.25,-812.68 586.24,-2875.14 336.41,-3988.26 -146.14,-651.07 -339.74,-835.16 -790.62,-946.63 246.67,424.58 416.37,944.87 490.3,1479.9 57.75,418.46 21.27,1268.33 68.42,1490.48 -61.55,-661.3 -153.16,-1276.16 -332.11,-1876.73 -219.51,-736.98 -293.73,-1004.26 -773.59,-1106.8z"/>
   <g style="clip-path:url(#id3)">
    <g>
     <rect class="fil1" x="-5917" y="-2674.82" width="26528.16" height="26353.05"/>
    </g>
   </g>
   <path class="fil2" d="M12541.06 9845.12c240.74,673.72 414.51,921.43 456.69,1758.62l-178.31 -521.68c-106.09,-419.02 -360.07,-1105.49 -644.23,-1215.14 -374.74,-99.37 -474.73,-23.43 -829.39,-75.81 -110.68,-16.39 -200.25,-39.58 -682.35,-78.14 91.78,394.31 631.97,832.35 617.49,1263.6 -323.83,-13.48 -309.61,-53.08 -596.68,-82.4 144.65,690.91 407.72,819.04 743.85,1317.97 668.69,992.63 1105.59,1285.93 1614.15,1950.01 134.03,175.06 353.42,503.96 499.97,631.01 467.25,-812.68 586.24,-2875.14 336.41,-3988.26 -146.14,-651.07 -339.74,-835.16 -790.62,-946.63 246.67,424.58 416.37,944.87 490.3,1479.9 57.75,418.46 21.27,1268.33 68.42,1490.48 -61.55,-661.3 -153.16,-1276.16 -332.11,-1876.73 -219.51,-736.98 -293.73,-1004.26 -773.59,-1106.8z"/>
   <path class="fil0" d="M4244.97 13454.94c137.24,-812.39 517,-1671.82 170.25,-2505.76 -96.14,-231.21 49.41,68.45 -78.96,-152.02l-346.13 427.46 -287.91 -515.25c-131.3,162.92 -299.44,841.15 -614.75,1438.57 -124.65,236.18 -234.38,415.53 -387.29,627.32 -677.99,938.96 833.69,2907.08 1429.19,3198.71 185.64,-678.55 993.46,-1529.43 1394.8,-2525.39 177.77,-441.12 213.89,-541.66 -139.45,-760.28 -293.88,340.01 -314.5,1085.6 -1053.6,1875.99 218.24,-378.43 422.3,-790.42 568.13,-1300.81 196.82,-688.9 320.72,-865.56 -99.02,-1318.22 -171.96,653.86 -268.19,959.17 -555.26,1509.68z"/>
   <g style="clip-path:url(#id4)">
    <g>
     <rect class="fil1" x="-5917" y="-2674.82" width="26528.16" height="26353.05"/>
    </g>
   </g>
   <path class="fil2" d="M4244.97 13454.94c137.24,-812.39 517,-1671.82 170.25,-2505.76 -96.14,-231.21 49.41,68.45 -78.96,-152.02l-346.13 427.46 -287.91 -515.25c-131.3,162.92 -299.44,841.15 -614.75,1438.57 -124.65,236.18 -234.38,415.53 -387.29,627.32 -677.99,938.96 833.69,2907.08 1429.19,3198.71 185.64,-678.55 993.46,-1529.43 1394.8,-2525.39 177.77,-441.12 213.89,-541.66 -139.45,-760.28 -293.88,340.01 -314.5,1085.6 -1053.6,1875.99 218.24,-378.43 422.3,-790.42 568.13,-1300.81 196.82,-688.9 320.72,-865.56 -99.02,-1318.22 -171.96,653.86 -268.19,959.17 -555.26,1509.68z"/>
   <path class="fil0" d="M10494.34 13622.64c67.33,-704.11 112.74,-1768.85 -172.12,-2482.16l-143.88 -252.83c-79,219.77 -110.64,241.46 -220.42,424.84l-201.4 -553.02c-85.6,-109.8 -29.32,-45.64 -122.21,-123.39 -98.36,720.73 -600.91,1780.73 -1234.71,2175.83 30.14,1105.73 1310.02,2168.28 1580.6,3095.39 431.44,-221.69 870.88,-817.81 1143.18,-1365.9 137.05,-275.77 255.59,-585 334.25,-898.45 163.65,-652.48 134.9,-673.11 -117.86,-921.12 -156.33,289.76 -222.81,783.49 -347.78,1119.82 -121.69,327.3 -407.45,719.71 -465.07,912.41 228.34,-557.97 775.18,-2089.4 369.15,-2730.73 -9.75,15.64 -18.35,39.02 -22.44,50.37l-53.58 160.39c-133.4,560.15 6.69,459.52 -325.71,1388.55z"/>
   <g style="clip-path:url(#id5)">
    <g>
     <rect class="fil1" x="-5917" y="-2674.82" width="26528.16" height="26353.05"/>
    </g>
   </g>
   <path class="fil2" d="M10494.34 13622.64c67.33,-704.11 112.74,-1768.85 -172.12,-2482.16l-143.88 -252.83c-79,219.77 -110.64,241.46 -220.42,424.84l-201.4 -553.02c-85.6,-109.8 -29.32,-45.64 -122.21,-123.39 -98.36,720.73 -600.91,1780.73 -1234.71,2175.83 30.14,1105.73 1310.02,2168.28 1580.6,3095.39 431.44,-221.69 870.88,-817.81 1143.18,-1365.9 137.05,-275.77 255.59,-585 334.25,-898.45 163.65,-652.48 134.9,-673.11 -117.86,-921.12 -156.33,289.76 -222.81,783.49 -347.78,1119.82 -121.69,327.3 -407.45,719.71 -465.07,912.41 228.34,-557.97 775.18,-2089.4 369.15,-2730.73 -9.75,15.64 -18.35,39.02 -22.44,50.37l-53.58 160.39c-133.4,560.15 6.69,459.52 -325.71,1388.55z"/>
   <path class="fil0" d="M9903.14 17825.84c176.46,-526.2 518.49,-1123.52 491.27,-1761.15 -137.58,134.52 -314.35,260.27 -566.59,364.23 -66.63,-317.8 -154.26,-505.39 -341.93,-743.82 -159.1,213.96 -373.22,757.15 -588.23,1065.76 -197.33,283.22 -675.69,595.2 -651.98,862.34 57.37,646.81 893.99,1379 1020.33,2238.38 872.28,-512.55 1909.71,-1929.91 1661.13,-2572.69 -164.27,154.9 -264.12,482.16 -395.52,707.92 -148.83,255.71 -328.2,487.9 -517.21,647.47 204.63,-416.55 901.02,-1473.45 572.04,-1969.1l-683.31 1160.66z"/>
   <g style="clip-path:url(#id6)">
    <g>
     <rect class="fil1" x="-5917" y="-2674.82" width="26528.16" height="26353.05"/>
    </g>
   </g>
   <path class="fil2" d="M9903.14 17825.84c176.46,-526.2 518.49,-1123.52 491.27,-1761.15 -137.58,134.52 -314.35,260.27 -566.59,364.23 -66.63,-317.8 -154.26,-505.39 -341.93,-743.82 -159.1,213.96 -373.22,757.15 -588.23,1065.76 -197.33,283.22 -675.69,595.2 -651.98,862.34 57.37,646.81 893.99,1379 1020.33,2238.38 872.28,-512.55 1909.71,-1929.91 1661.13,-2572.69 -164.27,154.9 -264.12,482.16 -395.52,707.92 -148.83,255.71 -328.2,487.9 -517.21,647.47 204.63,-416.55 901.02,-1473.45 572.04,-1969.1l-683.31 1160.66z"/>
   <path class="fil0" d="M4719.47 17899.13c94.72,-810.13 404.6,-1514.39 -121.73,-2165.82l-357.36 756.22 -579.08 -352.9c-141.73,1192.51 -847.04,993.31 -215.39,2188.5 379.31,717.74 830.09,1206.97 1440.79,1557.37 107.56,-226.46 123.33,-390.37 253.67,-636.81 314.66,-594.99 648.69,-1071.53 784.51,-1715.89l-269.11 -225.29c-277.86,435.3 -470.82,1099.06 -763.43,1555.11 251.31,-915.34 690.7,-1619.67 294.63,-2103.47l-467.5 1142.98z"/>
   <g style="clip-path:url(#id7)">
    <g>
     <rect class="fil1" x="-5917" y="-2674.82" width="26528.16" height="26353.05"/>
    </g>
   </g>
   <path class="fil2" d="M4719.47 17899.13c94.72,-810.13 404.6,-1514.39 -121.73,-2165.82l-357.36 756.22 -579.08 -352.9c-141.73,1192.51 -847.04,993.31 -215.39,2188.5 379.31,717.74 830.09,1206.97 1440.79,1557.37 107.56,-226.46 123.33,-390.37 253.67,-636.81 314.66,-594.99 648.69,-1071.53 784.51,-1715.89l-269.11 -225.29c-277.86,435.3 -470.82,1099.06 -763.43,1555.11 251.31,-915.34 690.7,-1619.67 294.63,-2103.47l-467.5 1142.98z"/>
   <path class="fil0" d="M7560.01 18946.02c161.05,-353.88 518.3,-677.18 402.91,-1126.27 -357.35,173.64 -630.08,621.82 -893.07,982.04 -254.28,-503.31 -489.43,-641.32 -826.91,-959.21 -45.51,54.17 -717.3,1428.99 -738.01,1505.27 274.4,468.74 1342.56,1527.08 1666.58,1659.29 231.02,-332.68 607.5,-609.01 903.54,-900.46 702.64,-691.76 686.66,-815.35 432.22,-1121.54 -272.65,204.96 -199.11,375.62 -861.6,885.5 166.19,-443.85 819.22,-988.51 547.3,-1483.51 -212.87,131.73 -415.07,391.7 -632.96,558.89z"/>
   <g style="clip-path:url(#id8)">
    <g>
     <rect class="fil1" x="-5917" y="-2674.82" width="26528.16" height="26353.05"/>
    </g>
   </g>
   <path class="fil2" d="M7560.01 18946.02c161.05,-353.88 518.3,-677.18 402.91,-1126.27 -357.35,173.64 -630.08,621.82 -893.07,982.04 -254.28,-503.31 -489.43,-641.32 -826.91,-959.21 -45.51,54.17 -717.3,1428.99 -738.01,1505.27 274.4,468.74 1342.56,1527.08 1666.58,1659.29 231.02,-332.68 607.5,-609.01 903.54,-900.46 702.64,-691.76 686.66,-815.35 432.22,-1121.54 -272.65,204.96 -199.11,375.62 -861.6,885.5 166.19,-443.85 819.22,-988.51 547.3,-1483.51 -212.87,131.73 -415.07,391.7 -632.96,558.89z"/>
   <path class="fil0" d="M11593.7 17829.55c94.88,-67.42 50.86,-32.51 134.96,-108.66 15.93,-14.42 62.39,-58.72 77.36,-74.4 106.99,-112.02 61.05,-66.45 127.93,-159.77 84.84,-118.41 180.34,-271.57 255.78,-394.69 138.49,-225.97 297.37,-537.5 406.65,-824.25 193.17,-506.9 522.99,-1755.94 -5.01,-2067.02 -108,326.4 -77.89,827.48 -146,1202.86 -61.94,341.44 -242.79,700.95 -294.99,940.57 144.04,-551.73 419.11,-2244.91 -53.77,-2750.45 -36.3,-38.8 -77.19,-77.17 -117.52,-113.14 -94.97,-84.72 -27.75,-37.88 -140.04,-110.43 -143.71,1117.1 -598,1562.73 -1013.25,2252.93 -355.18,590.34 618.63,1678.18 767.9,2206.45z"/>
   <g style="clip-path:url(#id9)">
    <g>
     <rect class="fil1" x="-5917" y="-2674.82" width="26528.16" height="26353.05"/>
    </g>
   </g>
   <path class="fil2" d="M11593.7 17829.55c94.88,-67.42 50.86,-32.51 134.96,-108.66 15.93,-14.42 62.39,-58.72 77.36,-74.4 106.99,-112.02 61.05,-66.45 127.93,-159.77 84.84,-118.41 180.34,-271.57 255.78,-394.69 138.49,-225.97 297.37,-537.5 406.65,-824.25 193.17,-506.9 522.99,-1755.94 -5.01,-2067.02 -108,326.4 -77.89,827.48 -146,1202.86 -61.94,341.44 -242.79,700.95 -294.99,940.57 144.04,-551.73 419.11,-2244.91 -53.77,-2750.45 -36.3,-38.8 -77.19,-77.17 -117.52,-113.14 -94.97,-84.72 -27.75,-37.88 -140.04,-110.43 -143.71,1117.1 -598,1562.73 -1013.25,2252.93 -355.18,590.34 618.63,1678.18 767.9,2206.45z"/>
   <path class="fil0" d="M1404.02 14380.69c-604.27,739.06 299.55,2501.03 751.44,3133.99 96.95,135.81 57.55,106.96 191.13,241.67l193.6 155.05c403.08,-764.71 1140.68,-1782.46 623.11,-2301.04l-484.93 1220.01c63.96,-458.34 397.93,-1363.47 101.45,-1749.31l-302.55 852.75c3.93,-438.27 130.51,-878.84 55.86,-1347.36 -54.47,-341.96 -263.57,-657.54 -325.06,-1104.88l-804.05 899.12z"/>
   <g style="clip-path:url(#id10)">
    <g>
     <rect class="fil1" x="-5917" y="-2674.82" width="26528.16" height="26353.05"/>
    </g>
   </g>
   <path class="fil2" d="M1404.02 14380.69c-604.27,739.06 299.55,2501.03 751.44,3133.99 96.95,135.81 57.55,106.96 191.13,241.67l193.6 155.05c403.08,-764.71 1140.68,-1782.46 623.11,-2301.04l-484.93 1220.01c63.96,-458.34 397.93,-1363.47 101.45,-1749.31l-302.55 852.75c3.93,-438.27 130.51,-878.84 55.86,-1347.36 -54.47,-341.96 -263.57,-657.54 -325.06,-1104.88l-804.05 899.12z"/>
   <path class="fil0" d="M11036.94 10732.71c-193.35,-501.67 -1525.23,-2465.17 -2224.11,-2648.06 271.57,464.12 534.75,798.29 838.97,1189.7 -531.45,-419.83 -829.3,-879.76 -1066.73,-1081.37 -466.05,-395.7 -385.89,-618.82 -1540.73,-767.1 316.87,1747.31 2081.27,3082.23 3992.6,3306.83z"/>
   <g style="clip-path:url(#id11)">
    <g>
     <rect class="fil1" x="-5917" y="-2674.82" width="26528.16" height="26353.05"/>
    </g>
   </g>
   <path class="fil2" d="M11036.94 10732.71c-193.35,-501.67 -1525.23,-2465.17 -2224.11,-2648.06 271.57,464.12 534.75,798.29 838.97,1189.7 -531.45,-419.83 -829.3,-879.76 -1066.73,-1081.37 -466.05,-395.7 -385.89,-618.82 -1540.73,-767.1 316.87,1747.31 2081.27,3082.23 3992.6,3306.83z"/>
   <path class="fil0" d="M4212.41 9193.71c100.19,-272.97 478.11,-751.11 657.69,-1067.38 -218.04,75.94 -549.35,353.04 -695.87,495.75 -341.03,332.18 -1297.42,1782.16 -1471.49,2204.81 1655.83,-210.58 3599.39,-1463.95 3919.41,-3404.44 -1543.23,295.56 -1295.87,784.42 -2409.74,1771.26z"/>
   <g style="clip-path:url(#id12)">
    <g>
     <rect class="fil1" x="-5917" y="-2674.82" width="26528.16" height="26353.05"/>
    </g>
   </g>
   <path class="fil2" d="M4212.41 9193.71c100.19,-272.97 478.11,-751.11 657.69,-1067.38 -218.04,75.94 -549.35,353.04 -695.87,495.75 -341.03,332.18 -1297.42,1782.16 -1471.49,2204.81 1655.83,-210.58 3599.39,-1463.95 3919.41,-3404.44 -1543.23,295.56 -1295.87,784.42 -2409.74,1771.26z"/>
   <path class="fil0" d="M2519.57 8744.14c414.42,-356.92 777.71,-507.69 1232.94,-1050.05 -1015.77,274.8 -2599.95,1428.98 -2963.75,2158.89 542.43,-75.02 1133.21,-107.17 1670.55,-193.24 746.12,-119.49 691.68,-282.67 1068.75,-736.57 587.53,-707.25 926.27,-1069.9 2010.39,-1569.47 -1377.5,-97.3 -1894.29,1015.66 -3018.88,1390.44z"/>
   <g style="clip-path:url(#id13)">
    <g>
     <rect class="fil1" x="-5917" y="-2674.82" width="26528.16" height="26353.05"/>
    </g>
   </g>
   <path class="fil2" d="M2519.57 8744.14c414.42,-356.92 777.71,-507.69 1232.94,-1050.05 -1015.77,274.8 -2599.95,1428.98 -2963.75,2158.89 542.43,-75.02 1133.21,-107.17 1670.55,-193.24 746.12,-119.49 691.68,-282.67 1068.75,-736.57 587.53,-707.25 926.27,-1069.9 2010.39,-1569.47 -1377.5,-97.3 -1894.29,1015.66 -3018.88,1390.44z"/>
   <path class="fil0" d="M13416.79 9740.51c-359.66,-689.56 -2550.72,-1941.67 -3497.83,-2115.95 315.24,404.54 790.1,641.3 1086.9,922.36 10.87,10.36 29.6,29.86 43.71,45.51 -1018.62,-304.18 -1555.69,-1403.88 -2924.56,-1265.25 2486.98,1074.72 1770.26,2053.22 3137.07,2230.98 537.87,34.29 1595.16,34.25 2154.71,182.35z"/>
   <g style="clip-path:url(#id14)">
    <g>
     <rect class="fil1" x="-5917" y="-2674.82" width="26528.16" height="26353.05"/>
    </g>
   </g>
   <path class="fil2" d="M13416.79 9740.51c-359.66,-689.56 -2550.72,-1941.67 -3497.83,-2115.95 315.24,404.54 790.1,641.3 1086.9,922.36 10.87,10.36 29.6,29.86 43.71,45.51 -1018.62,-304.18 -1555.69,-1403.88 -2924.56,-1265.25 2486.98,1074.72 1770.26,2053.22 3137.07,2230.98 537.87,34.29 1595.16,34.25 2154.71,182.35z"/>
   <path class="fil0" d="M10368.17 7457.49c-648.38,-867.29 -2785.97,-2782.99 -1861.08,-2888.69 650.96,-74.61 2447.35,303.59 3053.11,489.84 848.83,187.15 1607.94,169.44 1856.54,-657.37l-1527.31 -157.68 -554.91 -39.43 554.91 39.43 -554.91 -39.43c-376.12,-87.92 -781.82,-158.7 -1034.01,-437.46 -71.47,-78.88 -429.86,-686.59 -445.78,-745.52l1720.57 164 608.67 68.84c773.34,170.04 1470.73,401.1 1980.96,961.93 66.7,73.18 121.9,145.55 199.68,229.96l234.95 235.03c301.75,-1929.44 -428.08,-2262.93 -1415.04,-2809.38l-130.19 -90.43 -817.5 -60.01 -1461.72 -213.06c74.74,-476.3 396.68,-724.23 -270.76,-1088.81 -1946.68,-1064.21 -4708.09,562.1 -6802.28,557.99 -731.76,-1.51 -1539.93,-88.26 -2138.16,-525.51 -203.71,-148.77 -38.27,-25.53 -235.72,-205.36l-263.88 -239.23c-289.19,1931.65 1804.03,1977.89 3041.24,2606.68 65.58,33.3 -0.75,4.57 69.12,71.12 -1040.55,574.15 -886.39,2161.3 -1053.44,3286.09 -68.21,459.91 -138.89,1085.74 -225.38,1542.78 -36.88,195.27 -206.23,484.09 -122.34,433.23 77.71,-47.17 350.48,-226.88 388.88,-285.46 223.71,-342.45 298.74,-726.63 393.55,-1099.54 34.54,-135.68 144.78,-263.16 184.44,-397.51 -3.67,254.17 -9.95,520.09 -104.3,836.05 -28.99,96.83 -210.25,538.53 -250.18,644.33 101.39,5.77 472.66,-139.68 620.99,-281.01 157.8,-377.93 228.5,-602.9 269.49,-880.98 25.1,-170.9 128.04,-423.24 157.67,-593.14 148.62,72.76 -6.51,1127.78 -186.06,1462.63 297.65,-67.21 179.3,-78.95 282.4,-101.46 259.73,-56.49 312.82,-57.32 481.1,-277.28 103.68,-135.82 193.25,-259.7 304.64,-391.94 7.41,-8.96 53.52,321.26 -278.16,622.98 269.69,69.23 442.6,-49.82 625.35,-0.65 299.81,-412.91 534.95,-740.17 853.35,-1251.33 -87.58,417.92 -127,473.84 -360.65,824.39 -847.84,1271.88 -670.09,782.01 336.36,456.74 199.23,-64.25 102.76,-363.75 137.71,-550.45 20.88,-112.31 109.54,-414.29 124.36,-525.66 30.61,-230.69 -2.86,1106.58 114.13,1126.46 2255.81,386.3 534.82,-28.65 391.56,-950.97 -8.2,-53.59 2.62,3.89 16.35,25.32 259.09,406.46 335.97,306.21 599.56,673.31 369.68,73.17 699.25,31.76 1062.93,3.84 -90.61,-126.28 -260.02,-265.7 -322.33,-323.91 -184.38,-172.12 -567.01,-540.33 -586.5,-787.44 325.28,329.1 999.01,952.49 1120.1,1145.61 407.54,153.4 765.61,240.5 1217.92,387.52zm-3411.31 -5622.55c557.06,159.55 273.7,-16.5 723.87,355 418.9,345.54 1615.42,792.82 1665.73,-587.43 -931.77,-237.45 -1663.75,38.88 -2389.6,232.43z"/>
   <g style="clip-path:url(#id15)">
    <g>
     <rect class="fil1" x="-5917" y="-2674.82" width="26528.16" height="26353.05"/>
    </g>
   </g>
   <path class="fil2" d="M10368.17 7457.49c-648.38,-867.29 -2785.97,-2782.99 -1861.08,-2888.69 650.96,-74.61 2447.35,303.59 3053.11,489.84 848.83,187.15 1607.94,169.44 1856.54,-657.37l-1527.31 -157.68 -554.91 -39.43 554.91 39.43 -554.91 -39.43c-376.12,-87.92 -781.82,-158.7 -1034.01,-437.46 -71.47,-78.88 -429.86,-686.59 -445.78,-745.52l1720.57 164 608.67 68.84c773.34,170.04 1470.73,401.1 1980.96,961.93 66.7,73.18 121.9,145.55 199.68,229.96l234.95 235.03c301.75,-1929.44 -428.08,-2262.93 -1415.04,-2809.38l-130.19 -90.43 -817.5 -60.01 -1461.72 -213.06c74.74,-476.3 396.68,-724.23 -270.76,-1088.81 -1946.68,-1064.21 -4708.09,562.1 -6802.28,557.99 -731.76,-1.51 -1539.93,-88.26 -2138.16,-525.51 -203.71,-148.77 -38.27,-25.53 -235.72,-205.36l-263.88 -239.23c-289.19,1931.65 1804.03,1977.89 3041.24,2606.68 65.58,33.3 -0.75,4.57 69.12,71.12 -1040.55,574.15 -886.39,2161.3 -1053.44,3286.09 -68.21,459.91 -138.89,1085.74 -225.38,1542.78 -36.88,195.27 -206.23,484.09 -122.34,433.23 77.71,-47.17 350.48,-226.88 388.88,-285.46 223.71,-342.45 298.74,-726.63 393.55,-1099.54 34.54,-135.68 144.78,-263.16 184.44,-397.51 -3.67,254.17 -9.95,520.09 -104.3,836.05 -28.99,96.83 -210.25,538.53 -250.18,644.33 101.39,5.77 472.66,-139.68 620.99,-281.01 157.8,-377.93 228.5,-602.9 269.49,-880.98 25.1,-170.9 128.04,-423.24 157.67,-593.14 148.62,72.76 -6.51,1127.78 -186.06,1462.63 297.65,-67.21 179.3,-78.95 282.4,-101.46 259.73,-56.49 312.82,-57.32 481.1,-277.28 103.68,-135.82 193.25,-259.7 304.64,-391.94 7.41,-8.96 53.52,321.26 -278.16,622.98 269.69,69.23 442.6,-49.82 625.35,-0.65 299.81,-412.91 534.95,-740.17 853.35,-1251.33 -87.58,417.92 -127,473.84 -360.65,824.39 -847.84,1271.88 -670.09,782.01 336.36,456.74 199.23,-64.25 102.76,-363.75 137.71,-550.45 20.88,-112.31 109.54,-414.29 124.36,-525.66 30.61,-230.69 -2.86,1106.58 114.13,1126.46 2255.81,386.3 534.82,-28.65 391.56,-950.97 -8.2,-53.59 2.62,3.89 16.35,25.32 259.09,406.46 335.97,306.21 599.56,673.31 369.68,73.17 699.25,31.76 1062.93,3.84 -90.61,-126.28 -260.02,-265.7 -322.33,-323.91 -184.38,-172.12 -567.01,-540.33 -586.5,-787.44 325.28,329.1 999.01,952.49 1120.1,1145.61 407.54,153.4 765.61,240.5 1217.92,387.52zm-3411.31 -5622.55c557.06,159.55 273.7,-16.5 723.87,355 418.9,345.54 1615.42,792.82 1665.73,-587.43 -931.77,-237.45 -1663.75,38.88 -2389.6,232.43z"/>
  </g>
 </g>
</svg>
